# xmcd CD database file generated by Grip 3.2.0
# 
# Track frame offsets:
#       187
#       16162
#       38552
#       52285
#       70187
#       85007
#       98680
#       121645
#       141497
#       165190
# 
# Disc length: 2471 seconds
# 
# Revision: 1
# Processed by: cddbd v1.5.2PL0 Copyright (c) Steve Scherf et al.
# Submitted via: Grip 3.2.0
# 
DISCID=7409a50a
DTITLE=Amos Garrett - I Make My Home in My Shoes
DYEAR=1989
DGENRE=Blues
TTITLE0=Home in My Shoes
TTITLE1=Stanley Street
TTITLE2=All My Money
TTITLE3=Sleepwalk
TTITLE4=Hair of the Dog
TTITLE5=Bert's Boogie
TTITLE6=Move on Down the Line
TTITLE7=Slip Away
TTITLE8=Little Girl
TTITLE9=Buried Alive in the Blues
EXTD=
EXTT0=
EXTT1=
EXTT2=
EXTT3=
EXTT4=
EXTT5=
EXTT6=
EXTT7=
EXTT8=
EXTT9=
PLAYORDER=
